<svg width="250" height="40" viewBox="0 0 250 40" fill="none" xmlns="http://www.w3.org/2000/svg">
  <defs>
    <style>
      @font-face {
        font-family: 'Geist';
        src: local('Geist'), local('Geist-Regular'), url('https://cdn.jsdelivr.net/npm/geist/dist/fonts/geist-sans/Geist-Regular.woff2') format('woff2');
      }
      text {
        font-family: 'Geist', -apple-system, BlinkMacSystemFont, 'Segoe UI', Roboto, Helvetica, Arial, sans-serif;
      }
    </style>
  </defs>
  
  <!-- Left part: Powered by -->
  <!-- Background: Brand Lavender #E8E4ED -->
  <path d="M4 0H85V40H4C1.79086 40 0 38.2091 0 36V4C0 1.79086 1.79086 0 4 0Z" fill="#E8E4ED"/>
  <!-- Text: Brand Navy #1A1035 -->
  <text x="42.5" y="24" font-size="11" fill="#1A1035" text-anchor="middle">Powered by</text>
  
  <!-- Right part: Medal Social -->
  <!-- Background: Brand Navy #1A1035 -->
  <path d="M85 0H246C248.209 0 250 1.79086 250 4V36C250 38.2091 248.209 40 246 40H85V0Z" fill="#1A1035"/>
  
  <!-- Content Group: Centered in Right Box (85 to 250 = 165px wide) -->
  <!-- Logo (24px) + Gap (8px) + Text (~98px) = ~130px width -->
  <!-- Start X approx: 85 + (165 - 130)/2 = 102.5 -->
  
  <!-- Logo Symbol (Scaled 0.1 => 24.2px size) -->
  <g transform="translate(102, 8) scale(0.1)">
      <path d="M13.4434 120.999L120.998 13.4444L228.554 120.999L120.998 228.555L13.4434 120.999Z" stroke="white" stroke-width="5"/>
      <path d="M120.999 33.611C130.28 33.611 137.804 26.0869 137.804 16.8055C137.804 7.52407 130.28 0 120.999 0C111.717 0 104.193 7.52407 104.193 16.8055C104.193 26.0869 111.717 33.611 120.999 33.611Z" fill="white"/>
      <path d="M225.194 137.805C234.476 137.805 242 130.281 242 121C242 111.718 234.476 104.194 225.194 104.194C215.913 104.194 208.389 111.718 208.389 121C208.389 130.281 215.913 137.805 225.194 137.805Z" fill="white"/>
      <path d="M120.999 241.999C130.28 241.999 137.804 234.475 137.804 225.193C137.804 215.912 130.28 208.388 120.999 208.388C111.717 208.388 104.193 215.912 104.193 225.193C104.193 234.475 111.717 241.999 120.999 241.999Z" fill="white"/>
      <path d="M16.8055 137.805C26.0869 137.805 33.611 130.281 33.611 121C33.611 111.718 26.0869 104.194 16.8055 104.194C7.52407 104.194 0 111.718 0 121C0 130.281 7.52407 137.805 16.8055 137.805Z" fill="white"/>
      <path d="M107.134 144.527C106.534 142.201 105.321 140.078 103.622 138.379C101.923 136.68 99.8004 135.467 97.4741 134.867L56.2334 124.233C55.5298 124.033 54.9105 123.609 54.4696 123.026C54.0286 122.442 53.79 121.731 53.79 120.999C53.79 120.268 54.0286 119.557 54.4696 118.973C54.9105 118.39 55.5298 117.966 56.2334 117.766L97.4741 107.125C99.7996 106.525 101.922 105.314 103.621 103.616C105.32 101.919 106.533 99.7969 107.134 97.4718L117.768 56.2311C117.966 55.5247 118.389 54.9024 118.974 54.4591C119.558 54.0158 120.272 53.7758 121.005 53.7758C121.739 53.7758 122.452 54.0158 123.036 54.4591C123.621 54.9024 124.044 55.5247 124.242 56.2311L134.87 97.4718C135.47 99.7981 136.682 101.921 138.381 103.62C140.08 105.319 142.203 106.531 144.529 107.132L185.77 117.759C186.479 117.955 187.105 118.378 187.55 118.963C187.996 119.548 188.237 120.264 188.237 120.999C188.237 121.735 187.996 122.45 187.55 123.036C187.105 123.621 186.479 124.044 185.77 124.24L144.529 134.867C142.203 135.467 140.08 136.68 138.381 138.379C136.682 140.078 135.47 142.201 134.87 144.527L124.235 185.768C124.037 186.474 123.614 187.096 123.03 187.54C122.445 187.983 121.732 188.223 120.998 188.223C120.265 188.223 119.551 187.983 118.967 187.54C118.383 187.096 117.959 186.474 117.762 185.768L107.134 144.527Z" stroke="white" stroke-width="10" stroke-linecap="round" stroke-linejoin="round"/>
  </g>

  <!-- Medal Social Text -->
  <text x="135" y="25" font-size="16" font-weight="bold" fill="white" text-anchor="start">Medal Social</text>
</svg>
