<svg xmlns="http://www.w3.org/2000/svg" width="300" height="300" viewBox="0 0 48 48" fill="none" aria-labelledby="medalSocialIconTitle">
  <title id="medalSocialIconTitle">Medal Social Icon</title>
  <path d="M8 24L24 8L40 24L24 40L8 24Z" stroke="#5B2D8C" stroke-width="1.3" fill="none"></path>
  <circle cx="24" cy="8.5" r="2.5" fill="#5B2D8C"></circle>
  <circle cx="39.5" cy="24" r="2.5" fill="#5B2D8C"></circle>
  <circle cx="24" cy="39.5" r="2.5" fill="#5B2D8C"></circle>
  <circle cx="8.5" cy="24" r="2.5" fill="#5B2D8C"></circle>
  <g transform="translate(12, 12) scale(1)">
    <path d="M9.937 15.5A2 2 0 0 0 8.5 14.063l-6.135-1.582a.5.5 0 0 1 0-.962L8.5 9.936A2 2 0 0 0 9.937 8.5l1.582-6.135a.5.5 0 0 1 .963 0L14.063 8.5A2 2 0 0 0 15.5 9.937l6.135 1.581a.5.5 0 0 1 0 .964L15.5 14.063a2 2 0 0 0-1.437 1.437l-1.582 6.135a.5.5 0 0 1-.963 0z" fill="none" stroke="#5B2D8C" stroke-width="1.8" stroke-linecap="round" stroke-linejoin="round"></path>
  </g>
</svg>